# xmcd CD database file
#
# Track frame offsets:
#	150
#	10607
#	34105
#	47037
#	72970
#	99263
#	124968
#	137797
#	154228
#	167153
#	196818
#	213178
#	230192
#	242096
#	266446
#	282386
#	297794
#
# Disc length: 4253 seconds
#
# Revision: 0
# Processed by: cddbd v1.5.1PL0 Copyright (c) Steve Scherf et al.
# Submitted via: CDex 1.51
#
DISCID=f5109b11
DTITLE=Various Artist - Latin Jazz1
DYEAR=1900
DGENRE=Jazz
TTITLE0=Aqua de beber
TTITLE1=The girl from ipanema
TTITLE2=Wave
TTITLE3=This masquerade
TTITLE4=Desafinado
TTITLE5=Slow hot Wind
TTITLE6=Corcovado
TTITLE7=Brasileira
TTITLE8=The gentle rain
TTITLE9=Aquarela do Brasil
TTITLE10=So danco samba
TTITLE11=Isnensatez
TTITLE12=Mais que nada
TTITLE13=Days of  wine and roses
TTITLE14=Aguas de marco
TTITLE15=How am I to know
TTITLE16='s wonderful
EXTD=
EXTT0=
EXTT1=
EXTT2=
EXTT3=
EXTT4=
EXTT5=
EXTT6=
EXTT7=
EXTT8=
EXTT9=
EXTT10=
EXTT11=
EXTT12=
EXTT13=
EXTT14=
EXTT15=
EXTT16=
PLAYORDER=
